<?xml version="1.0" encoding="UTF-8" standalone="no"?>
<svg
   viewBox="0 0 24 24"
   version="1.1"
   id="svg1"
   sodipodi:docname="trilean.svg"
   inkscape:version="1.3.2 (091e20e, 2023-11-25)"
   xmlns:inkscape="http://www.inkscape.org/namespaces/inkscape"
   xmlns:sodipodi="http://sodipodi.sourceforge.net/DTD/sodipodi-0.dtd"
   xmlns="http://www.w3.org/2000/svg"
   xmlns:svg="http://www.w3.org/2000/svg">
  <defs
     id="defs1" />
  <sodipodi:namedview
     id="namedview1"
     pagecolor="#ffffff"
     bordercolor="#000000"
     borderopacity="0.25"
     inkscape:showpageshadow="2"
     inkscape:pageopacity="0.0"
     inkscape:pagecheckerboard="0"
     inkscape:deskcolor="#d1d1d1"
     inkscape:zoom="24.75"
     inkscape:cx="11.979798"
     inkscape:cy="12"
     inkscape:window-width="1392"
     inkscape:window-height="1027"
     inkscape:window-x="2863"
     inkscape:window-y="25"
     inkscape:window-maximized="0"
     inkscape:current-layer="svg1" />
  <path
     d="m 0,20.4 a 1.2,1.2 0 0 1 1.2,-1.2 h 6.2208 a 3.6,3.6 0 1 1 0,2.4 H 1.2 A 1.2,1.2 0 0 1 0,20.4 Z m 22.8,-18 h -2.4 a 1.2,1.2 0 0 0 0,2.4 h 2.4 a 1.2,1.2 0 0 0 0,-2.4 z M 1.2,4.8 h 8.6196 a 3.6,3.6 0 1 0 0,-2.4 H 1.2 a 1.2,1.2 0 0 0 0,2.4 z m 0,8.4 h 3.8208 a 3.6,3.6 0 1 0 0,-2.4 H 1.2 a 1.2,1.2 0 0 0 0,2.4 z m 21.6,-2.4 h -7.2 a 1.2,1.2 0 0 0 0,2.4 h 7.2 a 1.2,1.2 0 0 0 0,-2.4 z m 0,8.4 H 18 a 1.2,1.2 0 0 0 0,2.4 h 4.8 a 1.2,1.2 0 0 0 0,-2.4 z"
     id="path1"
     style="stroke-width:1.2" />
</svg>
